<svg
  width="200"
  height="200"
  viewBox="0 0 200 200"
  xmlns="http://www.w3.org/2000/svg"
>
  <!-- Background circle -->
  <circle
    cx="100"
    cy="100"
    r="90"
    fill="#0f172a"
    stroke="#22c55e"
    stroke-width="4"
  />

  <!-- Tech nodes -->
  <circle cx="40" cy="60" r="5" fill="#22c55e" />
  <circle cx="160" cy="80" r="5" fill="#22c55e" />
  <circle cx="60" cy="160" r="5" fill="#22c55e" />

  <!-- Connecting lines -->
  <line x1="40" y1="60" x2="80" y2="90" stroke="#22c55e" stroke-width="2" />
  <line x1="160" y1="80" x2="120" y2="100" stroke="#22c55e" stroke-width="2" />
  <line x1="60" y1="160" x2="90" y2="120" stroke="#22c55e" stroke-width="2" />

  <!-- Letter R -->
  <path
    d="M80 60
       H115
       C130 60 140 70 140 85
       C140 100 130 110 115 110
       H100
       L135 145
       H115
       L90 115
       H80
       Z

       M80 75
       V95
       H112
       C120 95 125 92 125 85
       C125 78 120 75 112 75
       Z"
    fill="#ffffff"
  />
</svg>
